<?xml version="1.0" encoding="utf-8"?>
<!-- Generator: Adobe Illustrator 27.5.0, SVG Export Plug-In . SVG Version: 6.00 Build 0)  -->
<svg version="1.1" id="Layer_1" xmlns="http://www.w3.org/2000/svg" xmlns:xlink="http://www.w3.org/1999/xlink" x="0px" y="0px"
	 viewBox="0 0 292.9 82.17" style="enable-background:new 0 0 292.9 82.17;" xml:space="preserve">
<style type="text/css">
	.st0{fill:#FFFFFF;}
</style>
<path class="st0" d="M230.66,79.28l6.92-13.53h0.26l6.92,13.53h-2.81l-1.06-2.13h-6.39l-1.04,2.13H230.66z M235.77,74.9h3.87
	l-1.93-4.09L235.77,74.9z"/>
<polygon class="st0" points="258.96,79.28 250.06,71.23 250.06,79.28 247.47,79.28 247.47,65.75 247.74,65.75 256.65,73.93 
	256.65,65.75 259.24,65.75 259.24,79.28 "/>
<path class="st0" d="M269.64,79.54c-0.96,0-1.87-0.19-2.72-0.56c-0.85-0.37-1.6-0.87-2.23-1.51c-0.64-0.64-1.14-1.38-1.51-2.23
	c-0.37-0.85-0.55-1.76-0.55-2.74c0-0.96,0.18-1.87,0.55-2.73c0.37-0.86,0.87-1.6,1.51-2.24c0.64-0.64,1.38-1.14,2.23-1.51
	c0.85-0.37,1.76-0.56,2.72-0.56c0.97,0,1.89,0.18,2.74,0.56c0.85,0.37,1.6,0.87,2.23,1.51c0.64,0.63,1.14,1.38,1.51,2.24
	c0.37,0.86,0.55,1.77,0.55,2.73c0,0.98-0.18,1.89-0.55,2.74c-0.37,0.85-0.87,1.59-1.51,2.23c-0.64,0.64-1.38,1.14-2.23,1.51
	C271.53,79.36,270.62,79.54,269.64,79.54 M269.65,67.9c-0.62,0-1.19,0.13-1.73,0.38c-0.54,0.25-1,0.59-1.4,1.01
	c-0.4,0.42-0.72,0.91-0.95,1.47c-0.23,0.56-0.35,1.15-0.35,1.75c0,0.62,0.12,1.2,0.35,1.76c0.23,0.56,0.55,1.05,0.95,1.47
	c0.4,0.43,0.87,0.76,1.4,1.02c0.54,0.25,1.11,0.38,1.73,0.38c0.61,0,1.19-0.13,1.73-0.38c0.54-0.25,1-0.59,1.4-1.02
	c0.4-0.43,0.72-0.92,0.95-1.47c0.23-0.56,0.35-1.14,0.35-1.76c0-0.6-0.12-1.19-0.35-1.75c-0.23-0.56-0.55-1.05-0.95-1.47
	c-0.4-0.42-0.87-0.76-1.4-1.01C270.84,68.03,270.27,67.9,269.65,67.9"/>
<path class="st0" d="M279.54,77.51l1.41-2.07c0.68,0.47,1.38,0.87,2.1,1.21c0.72,0.34,1.48,0.51,2.27,0.51
	c0.42,0,0.79-0.05,1.11-0.16c0.32-0.1,0.59-0.24,0.82-0.41c0.22-0.17,0.39-0.36,0.5-0.57c0.11-0.22,0.17-0.43,0.17-0.64
	c0-0.27-0.08-0.5-0.25-0.69c-0.17-0.19-0.39-0.35-0.67-0.47c-0.28-0.12-0.6-0.23-0.98-0.31c-0.38-0.09-0.77-0.17-1.18-0.24
	c-0.27-0.05-0.59-0.11-0.94-0.17c-0.36-0.07-0.73-0.16-1.11-0.28c-0.38-0.12-0.76-0.27-1.13-0.46c-0.37-0.19-0.7-0.43-1-0.72
	c-0.3-0.29-0.53-0.64-0.71-1.04c-0.18-0.4-0.27-0.87-0.27-1.42c0-0.79,0.16-1.45,0.48-1.97c0.32-0.52,0.73-0.94,1.23-1.24
	c0.5-0.3,1.05-0.52,1.67-0.64s1.2-0.19,1.77-0.19c0.57,0,1.07,0.04,1.52,0.11c0.45,0.07,0.86,0.18,1.24,0.32s0.76,0.32,1.12,0.54
	c0.36,0.22,0.76,0.47,1.18,0.77l-1.44,2.04c-0.64-0.45-1.26-0.78-1.85-1.02c-0.59-0.23-1.21-0.35-1.87-0.35
	c-0.22,0-0.48,0.03-0.76,0.08c-0.28,0.05-0.55,0.14-0.8,0.27c-0.25,0.12-0.46,0.28-0.63,0.47c-0.17,0.19-0.25,0.42-0.25,0.69
	c0,0.27,0.1,0.5,0.3,0.69c0.2,0.18,0.45,0.34,0.76,0.46c0.31,0.12,0.65,0.23,1.02,0.31c0.37,0.09,0.73,0.17,1.07,0.26
	c0.26,0.06,0.57,0.12,0.92,0.18c0.35,0.06,0.72,0.15,1.09,0.26c0.38,0.11,0.75,0.26,1.12,0.45c0.37,0.18,0.7,0.42,0.99,0.71
	c0.29,0.29,0.52,0.65,0.7,1.07c0.18,0.43,0.27,0.94,0.27,1.55c0,0.7-0.12,1.31-0.37,1.83c-0.25,0.52-0.6,0.95-1.06,1.29
	c-0.46,0.34-1,0.59-1.63,0.77c-0.63,0.17-1.33,0.26-2.09,0.26c-0.7,0-1.32-0.05-1.86-0.16c-0.54-0.1-1.03-0.25-1.47-0.43
	c-0.44-0.18-0.86-0.39-1.26-0.64C280.37,78.07,279.96,77.8,279.54,77.51"/>
<rect x="220.44" y="11.49" class="st0" width="1.16" height="69.98"/>
<path class="st0" d="M290.56,26.68c-3.21-10.76-14.53-16.87-25.28-13.66c-7.67,2.29-12.97,8.7-14.23,16.1
	c0.02-0.05,0.05-0.09,0.07-0.14c0.54-1.33,1.28-2.6,2.24-3.76c5.09-6.19,14.24-7.09,20.43-2c6.19,5.09,7.09,14.24,2,20.43
	c-4.83,5.87-13.3,6.98-19.44,2.74c-0.06-0.04-0.13-0.07-0.19-0.11c5.1,5.51,13.06,7.98,20.73,5.69
	C287.65,48.75,293.77,37.43,290.56,26.68"/>
<path class="st0" d="M246.23,24.39c2.12-0.11,4.04,0.17,5.77,0.84c1.73,0.67,3.21,1.64,4.43,2.9c1.23,1.26,2.17,2.79,2.85,4.57
	c0.67,1.79,1.02,3.76,1.06,5.91c0,1.3-0.11,2.47-0.33,3.51c-0.22,1.04-0.51,1.97-0.86,2.79c-0.35,0.82-0.75,1.53-1.2,2.15
	c-0.45,0.61-0.89,1.14-1.34,1.59c-0.93,0.93-1.92,1.67-2.98,2.23s-2.12,1-3.18,1.31s-2.06,0.52-3.01,0.61
	c-0.95,0.09-1.78,0.14-2.48,0.14c-1.67,0-3.27-0.23-4.8-0.7c-1.52-0.46-2.91-1.12-4.15-1.95c-1.25-0.84-2.33-1.84-3.24-3.01
	c-0.91-1.17-1.59-2.46-2.04-3.88c-0.74-2.34-1.06-4.58-0.95-6.72c0.11-2.14,0.67-4.38,1.67-6.72c0.33-0.71,0.96-1.79,1.87-3.24
	c0.91-1.45,1.97-3.06,3.18-4.82c1.21-1.77,2.48-3.59,3.82-5.47c1.34-1.88,2.58-3.6,3.74-5.16h9.65c-0.75,1-1.55,2.09-2.4,3.26
	c-0.86,1.17-1.71,2.36-2.57,3.57c-0.86,1.21-1.71,2.41-2.57,3.6c-0.86,1.19-1.65,2.31-2.4,3.35c0.3-0.15,0.65-0.29,1.06-0.42
	C245.24,24.51,245.71,24.43,246.23,24.39 M245.17,46.04c1.04,0,2.02-0.2,2.93-0.59c0.91-0.39,1.71-0.91,2.4-1.57
	c0.69-0.65,1.23-1.43,1.62-2.32c0.39-0.9,0.59-1.85,0.59-2.86c0-1.01-0.2-1.96-0.59-2.85c-0.39-0.9-0.93-1.68-1.62-2.35
	c-0.69-0.67-1.49-1.2-2.4-1.6c-0.91-0.39-1.89-0.59-2.93-0.59c-1.04,0-2.02,0.2-2.93,0.59c-0.91,0.39-1.7,0.93-2.37,1.6
	c-0.67,0.67-1.2,1.46-1.59,2.35c-0.39,0.89-0.59,1.85-0.59,2.85c0,1.01,0.2,1.96,0.59,2.86c0.39,0.9,0.92,1.67,1.59,2.32
	c0.67,0.65,1.46,1.18,2.37,1.57C243.15,45.84,244.12,46.04,245.17,46.04"/>
<path class="st0" d="M65.48,46.84l4.22-6.23c2.04,1.41,4.14,2.62,6.31,3.64c2.17,1.02,4.44,1.53,6.81,1.53
	c1.26,0,2.37-0.16,3.34-0.47c0.96-0.32,1.78-0.72,2.45-1.22c0.67-0.5,1.17-1.07,1.5-1.72c0.33-0.65,0.5-1.29,0.5-1.92
	c0-0.81-0.25-1.51-0.75-2.08c-0.5-0.57-1.17-1.04-2-1.42c-0.83-0.37-1.82-0.68-2.95-0.94c-1.13-0.26-2.31-0.5-3.53-0.72
	c-0.82-0.15-1.76-0.32-2.83-0.53c-1.08-0.2-2.19-0.48-3.33-0.83c-1.15-0.35-2.28-0.81-3.39-1.39c-1.11-0.57-2.11-1.29-3-2.17
	c-0.89-0.87-1.6-1.91-2.14-3.11c-0.54-1.2-0.81-2.62-0.81-4.25c0-2.37,0.48-4.34,1.44-5.92c0.96-1.57,2.2-2.82,3.7-3.72
	c1.5-0.91,3.17-1.55,5-1.92c1.83-0.37,3.6-0.56,5.31-0.56c1.7,0,3.22,0.11,4.56,0.33c1.33,0.22,2.57,0.55,3.72,0.97
	c1.15,0.43,2.27,0.96,3.36,1.61c1.09,0.65,2.27,1.42,3.53,2.31l-4.34,6.11c-1.93-1.33-3.78-2.35-5.56-3.06
	c-1.78-0.7-3.65-1.06-5.61-1.06c-0.67,0-1.43,0.08-2.28,0.25c-0.85,0.17-1.66,0.43-2.42,0.81c-0.76,0.37-1.39,0.84-1.89,1.42
	c-0.5,0.57-0.75,1.27-0.75,2.09c0,0.82,0.3,1.5,0.89,2.06c0.59,0.56,1.35,1.02,2.28,1.39c0.93,0.37,1.95,0.69,3.06,0.94
	c1.11,0.26,2.19,0.52,3.22,0.78c0.78,0.19,1.7,0.37,2.75,0.56c1.06,0.19,2.15,0.44,3.28,0.78c1.13,0.33,2.25,0.78,3.36,1.33
	c1.11,0.56,2.1,1.27,2.97,2.14c0.87,0.87,1.58,1.94,2.11,3.22c0.54,1.28,0.81,2.83,0.81,4.64c0,2.11-0.37,3.95-1.11,5.5
	c-0.74,1.56-1.8,2.84-3.17,3.86c-1.37,1.02-3,1.79-4.89,2.31c-1.89,0.52-3.98,0.78-6.28,0.78c-2.11,0-3.97-0.16-5.59-0.47
	c-1.61-0.32-3.08-0.74-4.42-1.28c-1.33-0.54-2.59-1.18-3.78-1.92C67.96,48.54,66.74,47.73,65.48,46.84"/>
<path class="st0" d="M123,11.49c2,0,3.88,0.38,5.64,1.14c1.76,0.76,3.29,1.79,4.59,3.08c1.3,1.3,2.32,2.83,3.08,4.59
	c0.76,1.76,1.14,3.64,1.14,5.64c0,2-0.33,3.85-1,5.56c-0.67,1.7-1.65,3.2-2.95,4.47s-2.94,2.28-4.92,3
	c-1.98,0.72-4.27,1.08-6.86,1.08h-9.06v12.12h-7.78V11.49H123z M123,33.06c1.15,0,2.15-0.19,3-0.58c0.85-0.39,1.55-0.92,2.08-1.58
	c0.54-0.67,0.94-1.43,1.19-2.28s0.39-1.74,0.39-2.67c0-0.93-0.17-1.84-0.5-2.75c-0.33-0.91-0.82-1.71-1.45-2.42
	s-1.41-1.28-2.33-1.72c-0.93-0.44-2-0.67-3.22-0.67h-9.51v14.67H123z"/>
<path class="st0" d="M160.69,11.49c2,0,3.88,0.38,5.64,1.14c1.76,0.76,3.29,1.79,4.59,3.08c1.3,1.3,2.32,2.83,3.08,4.59
	c0.76,1.76,1.14,3.64,1.14,5.64c0,2-0.33,3.85-1,5.56c-0.67,1.7-1.65,3.2-2.95,4.47c-1.3,1.28-2.94,2.28-4.92,3
	c-1.98,0.72-4.27,1.08-6.86,1.08h-9.06v12.12h-7.78V11.49H160.69z M160.69,33.06c1.15,0,2.15-0.19,3-0.58
	c0.85-0.39,1.55-0.92,2.08-1.58c0.54-0.67,0.93-1.43,1.2-2.28c0.26-0.85,0.39-1.74,0.39-2.67c0-0.93-0.17-1.84-0.5-2.75
	c-0.33-0.91-0.82-1.71-1.44-2.42c-0.63-0.7-1.41-1.28-2.34-1.72c-0.93-0.44-2-0.67-3.22-0.67h-9.5v14.67H160.69z"/>
<path class="st0" d="M170.36,52.17l20.79-40.63h0.78l20.79,40.63h-8.45l-3.17-6.39h-19.17l-3.11,6.39H170.36z M185.7,39h11.62
	l-5.78-12.28L185.7,39z"/>
<path class="st0" d="M109.58,63.77l-0.87,0.31c-0.05-0.3-0.19-0.58-0.45-0.83c-0.25-0.25-0.6-0.37-1.04-0.37
	c-0.39,0-0.72,0.11-0.97,0.34c-0.26,0.23-0.39,0.5-0.39,0.83c0,0.26,0.08,0.48,0.23,0.65c0.15,0.18,0.38,0.3,0.67,0.37l1.05,0.23
	c0.58,0.13,1.03,0.36,1.35,0.71c0.32,0.35,0.48,0.77,0.48,1.27c0,0.57-0.23,1.06-0.68,1.47c-0.45,0.41-1.03,0.62-1.76,0.62
	c-0.79,0-1.4-0.21-1.85-0.62c-0.45-0.41-0.71-0.9-0.78-1.47l0.93-0.3c0.04,0.42,0.2,0.78,0.5,1.07s0.69,0.44,1.19,0.44
	c0.46,0,0.82-0.1,1.07-0.32c0.25-0.21,0.38-0.48,0.38-0.8c0-0.26-0.09-0.49-0.27-0.69c-0.18-0.2-0.44-0.33-0.78-0.4l-1-0.22
	c-0.52-0.11-0.94-0.33-1.25-0.67c-0.31-0.33-0.47-0.75-0.47-1.26c0-0.56,0.23-1.04,0.68-1.46c0.45-0.42,1-0.63,1.64-0.63
	c0.72,0,1.27,0.18,1.66,0.53C109.24,62.9,109.48,63.31,109.58,63.77"/>
<path class="st0" d="M111.27,65.01c0.46-0.48,1.04-0.72,1.75-0.72c0.71,0,1.29,0.24,1.75,0.72c0.46,0.48,0.69,1.08,0.69,1.81
	c0,0.73-0.23,1.34-0.68,1.82c-0.46,0.48-1.04,0.72-1.76,0.72c-0.72,0-1.3-0.24-1.76-0.72c-0.46-0.48-0.68-1.09-0.68-1.82
	C110.58,66.09,110.81,65.48,111.27,65.01 M111.97,68.07c0.29,0.3,0.64,0.45,1.06,0.45c0.42,0,0.77-0.15,1.06-0.45
	c0.29-0.3,0.43-0.72,0.43-1.26c0-0.53-0.14-0.94-0.43-1.24c-0.29-0.3-0.64-0.45-1.06-0.45c-0.42,0-0.77,0.15-1.06,0.45
	s-0.43,0.72-0.43,1.24C111.53,67.35,111.68,67.77,111.97,68.07"/>
<path class="st0" d="M118.86,65.15c-0.4,0-0.75,0.15-1.03,0.44c-0.28,0.29-0.42,0.7-0.42,1.23c0,0.52,0.14,0.93,0.42,1.23
	c0.28,0.3,0.63,0.45,1.04,0.45c0.4,0,0.7-0.1,0.91-0.3c0.21-0.2,0.35-0.43,0.42-0.68l0.82,0.36c-0.13,0.4-0.38,0.74-0.75,1.04
	c-0.37,0.3-0.84,0.45-1.4,0.45c-0.69,0-1.27-0.24-1.73-0.72c-0.46-0.48-0.68-1.09-0.68-1.82c0-0.74,0.23-1.35,0.68-1.82
	c0.46-0.47,1.03-0.71,1.72-0.71c0.58,0,1.05,0.15,1.41,0.45c0.36,0.3,0.6,0.65,0.71,1.07l-0.84,0.36c-0.07-0.28-0.21-0.52-0.42-0.71
	C119.52,65.25,119.23,65.15,118.86,65.15"/>
<path class="st0" d="M122.29,63.1c-0.13-0.13-0.19-0.29-0.19-0.47c0-0.18,0.06-0.34,0.19-0.48c0.13-0.13,0.29-0.2,0.47-0.2
	c0.19,0,0.34,0.06,0.48,0.19c0.13,0.13,0.2,0.29,0.2,0.48c0,0.19-0.07,0.34-0.2,0.47c-0.13,0.13-0.29,0.19-0.48,0.19
	C122.58,63.29,122.42,63.23,122.29,63.1 M123.23,69.21h-0.92v-4.77h0.92V69.21z"/>
<path class="st0" d="M128.37,67.57l0.8,0.28c-0.14,0.44-0.4,0.81-0.77,1.09c-0.38,0.28-0.83,0.42-1.37,0.42
	c-0.67,0-1.24-0.23-1.7-0.69c-0.47-0.46-0.7-1.08-0.7-1.86c0-0.73,0.22-1.33,0.68-1.81c0.45-0.48,0.99-0.71,1.61-0.71
	c0.72,0,1.28,0.23,1.69,0.68c0.4,0.45,0.61,1.06,0.61,1.82c0,0.12-0.01,0.22-0.02,0.3h-3.59c0.01,0.42,0.15,0.77,0.42,1.04
	c0.27,0.27,0.61,0.41,1.02,0.41C127.71,68.53,128.16,68.21,128.37,67.57 M125.62,66.33h2.61c-0.01-0.36-0.13-0.65-0.36-0.88
	s-0.54-0.34-0.95-0.34c-0.37,0-0.68,0.12-0.91,0.36C125.77,65.71,125.64,66,125.62,66.33"/>
<path class="st0" d="M133.94,68.56v-0.08c-0.13,0.24-0.32,0.45-0.57,0.61c-0.26,0.16-0.56,0.24-0.91,0.24
	c-0.68,0-1.23-0.24-1.64-0.72c-0.41-0.48-0.62-1.08-0.62-1.81c0-0.69,0.21-1.28,0.63-1.77c0.42-0.49,0.96-0.73,1.63-0.73
	c0.39,0,0.71,0.08,0.95,0.23c0.25,0.16,0.41,0.35,0.51,0.57v-3.09h0.92v6.3c0,0.32,0.02,0.62,0.05,0.88h-0.9
	C133.95,69.02,133.94,68.81,133.94,68.56 M131.15,66.81c0,0.5,0.12,0.91,0.37,1.23c0.25,0.32,0.59,0.48,1.03,0.48
	c0.42,0,0.75-0.16,1-0.49c0.25-0.32,0.38-0.74,0.38-1.24c0-0.5-0.12-0.9-0.37-1.2c-0.24-0.3-0.58-0.46-1-0.46
	c-0.42,0-0.76,0.16-1.02,0.47C131.28,65.91,131.15,66.31,131.15,66.81"/>
<path class="st0" d="M136.33,67.93c0-0.41,0.13-0.74,0.4-0.99c0.26-0.25,0.62-0.4,1.05-0.46l1.29-0.19
	c0.24-0.03,0.37-0.15,0.37-0.36c0-0.25-0.09-0.46-0.26-0.61c-0.17-0.16-0.43-0.24-0.77-0.24c-0.32,0-0.57,0.09-0.75,0.26
	s-0.29,0.41-0.33,0.7l-0.89-0.21c0.05-0.46,0.25-0.83,0.62-1.12c0.37-0.29,0.81-0.43,1.33-0.43c0.68,0,1.17,0.16,1.5,0.49
	c0.32,0.33,0.49,0.75,0.49,1.26v2.39c0,0.28,0.02,0.54,0.06,0.78h-0.91c-0.03-0.2-0.05-0.41-0.05-0.65
	c-0.13,0.21-0.33,0.4-0.58,0.56c-0.25,0.16-0.57,0.24-0.96,0.24c-0.47,0-0.85-0.14-1.15-0.42
	C136.48,68.65,136.33,68.32,136.33,67.93 M138.05,68.57c0.42,0,0.75-0.11,1-0.34c0.25-0.22,0.38-0.58,0.38-1.07v-0.22l-1.46,0.22
	c-0.21,0.03-0.38,0.11-0.51,0.23c-0.13,0.12-0.19,0.28-0.19,0.49c0,0.18,0.07,0.35,0.21,0.49C137.64,68.5,137.82,68.57,138.05,68.57
	"/>
<path class="st0" d="M145.36,68.56v-0.08c-0.13,0.24-0.32,0.45-0.57,0.61c-0.26,0.16-0.56,0.24-0.91,0.24
	c-0.68,0-1.23-0.24-1.64-0.72c-0.41-0.48-0.62-1.08-0.62-1.81c0-0.69,0.21-1.28,0.63-1.77c0.42-0.49,0.96-0.73,1.63-0.73
	c0.39,0,0.71,0.08,0.95,0.23c0.24,0.16,0.41,0.35,0.51,0.57v-3.09h0.92v6.3c0,0.32,0.02,0.62,0.05,0.88h-0.9
	C145.37,69.02,145.36,68.81,145.36,68.56 M142.57,66.81c0,0.5,0.12,0.91,0.37,1.23c0.25,0.32,0.59,0.48,1.03,0.48
	c0.42,0,0.75-0.16,1-0.49c0.25-0.32,0.38-0.74,0.38-1.24c0-0.5-0.12-0.9-0.37-1.2c-0.24-0.3-0.58-0.46-1-0.46
	c-0.42,0-0.76,0.16-1.02,0.47C142.7,65.91,142.57,66.31,142.57,66.81"/>
<path class="st0" d="M151.4,67.57l0.8,0.28c-0.14,0.44-0.4,0.81-0.77,1.09c-0.38,0.28-0.83,0.42-1.37,0.42
	c-0.67,0-1.24-0.23-1.7-0.69c-0.47-0.46-0.7-1.08-0.7-1.86c0-0.73,0.23-1.33,0.68-1.81c0.45-0.48,0.99-0.71,1.61-0.71
	c0.72,0,1.28,0.23,1.69,0.68c0.4,0.45,0.6,1.06,0.6,1.82c0,0.12-0.01,0.22-0.02,0.3h-3.59c0.01,0.42,0.15,0.77,0.42,1.04
	c0.28,0.27,0.61,0.41,1.02,0.41C150.74,68.53,151.19,68.21,151.4,67.57 M148.65,66.33h2.61c-0.01-0.36-0.13-0.65-0.36-0.88
	s-0.54-0.34-0.95-0.34c-0.37,0-0.68,0.12-0.91,0.36C148.8,65.71,148.67,66,148.65,66.33"/>
<path class="st0" d="M158.96,66.33h-1.59v2.88h-0.97v-7.03h2.56c0.64,0,1.16,0.2,1.57,0.6c0.4,0.4,0.6,0.89,0.6,1.49
	c0,0.6-0.2,1.1-0.6,1.49C160.12,66.13,159.6,66.33,158.96,66.33 M157.37,65.46h1.41c0.42,0,0.75-0.11,0.99-0.32
	c0.25-0.21,0.37-0.5,0.37-0.87c0-0.37-0.12-0.67-0.37-0.89c-0.24-0.22-0.57-0.33-0.99-0.33h-1.41V65.46z"/>
<path class="st0" d="M161.72,67.97l0.84-0.3c0.03,0.26,0.15,0.47,0.34,0.64c0.19,0.17,0.45,0.25,0.77,0.25
	c0.25,0,0.45-0.06,0.6-0.18c0.15-0.12,0.22-0.27,0.22-0.45c0-0.32-0.21-0.52-0.62-0.62l-0.81-0.18c-0.37-0.08-0.66-0.24-0.87-0.48
	c-0.21-0.24-0.32-0.53-0.32-0.86c0-0.41,0.17-0.76,0.5-1.06c0.33-0.3,0.73-0.45,1.2-0.45c0.3,0,0.58,0.04,0.81,0.13
	c0.24,0.09,0.42,0.21,0.56,0.35c0.13,0.15,0.23,0.28,0.3,0.41c0.07,0.13,0.12,0.25,0.15,0.39l-0.82,0.31
	c-0.01-0.08-0.04-0.16-0.07-0.23c-0.03-0.08-0.08-0.16-0.15-0.25c-0.07-0.09-0.17-0.17-0.3-0.22c-0.13-0.06-0.29-0.09-0.47-0.09
	c-0.23,0-0.42,0.06-0.57,0.19c-0.15,0.13-0.22,0.27-0.22,0.45c0,0.3,0.18,0.5,0.55,0.57l0.77,0.17c0.42,0.09,0.75,0.26,0.98,0.51
	s0.34,0.55,0.34,0.91c0,0.38-0.15,0.72-0.46,1.02c-0.31,0.3-0.74,0.46-1.28,0.46c-0.59,0-1.05-0.15-1.38-0.44
	C161.96,68.62,161.77,68.3,161.72,67.97"/>
<path class="st0" d="M166.84,63.1c-0.13-0.13-0.19-0.29-0.19-0.47c0-0.18,0.06-0.34,0.19-0.48s0.29-0.2,0.47-0.2
	c0.18,0,0.34,0.06,0.48,0.19c0.13,0.13,0.2,0.29,0.2,0.48c0,0.19-0.07,0.34-0.2,0.47s-0.29,0.19-0.48,0.19
	C167.12,63.29,166.97,63.23,166.84,63.1 M167.78,69.21h-0.92v-4.77h0.92V69.21z"/>
<path class="st0" d="M171.57,65.15c-0.4,0-0.75,0.15-1.03,0.44c-0.28,0.29-0.42,0.7-0.42,1.23c0,0.52,0.14,0.93,0.42,1.23
	c0.28,0.3,0.63,0.45,1.04,0.45c0.4,0,0.7-0.1,0.91-0.3c0.21-0.2,0.35-0.43,0.42-0.68l0.82,0.36c-0.13,0.4-0.38,0.74-0.75,1.04
	c-0.37,0.3-0.84,0.45-1.4,0.45c-0.69,0-1.27-0.24-1.73-0.72c-0.46-0.48-0.68-1.09-0.68-1.82c0-0.74,0.23-1.35,0.68-1.82
	c0.46-0.47,1.03-0.71,1.72-0.71c0.58,0,1.05,0.15,1.41,0.45c0.36,0.3,0.6,0.65,0.71,1.07l-0.84,0.36c-0.07-0.28-0.21-0.52-0.42-0.71
	C172.22,65.25,171.94,65.15,171.57,65.15"/>
<path class="st0" d="M174.67,67.93c0-0.41,0.13-0.74,0.4-0.99c0.26-0.25,0.61-0.4,1.05-0.46l1.29-0.19
	c0.25-0.03,0.37-0.15,0.37-0.36c0-0.25-0.09-0.46-0.26-0.61c-0.17-0.16-0.43-0.24-0.77-0.24c-0.32,0-0.57,0.09-0.76,0.26
	c-0.18,0.18-0.29,0.41-0.33,0.7l-0.89-0.21c0.05-0.46,0.26-0.83,0.62-1.12c0.37-0.29,0.81-0.43,1.33-0.43c0.67,0,1.17,0.16,1.5,0.49
	c0.32,0.33,0.49,0.75,0.49,1.26v2.39c0,0.28,0.02,0.54,0.06,0.78h-0.91c-0.03-0.2-0.05-0.41-0.05-0.65
	c-0.13,0.21-0.33,0.4-0.58,0.56c-0.25,0.16-0.57,0.24-0.96,0.24c-0.47,0-0.85-0.14-1.15-0.42
	C174.82,68.65,174.67,68.32,174.67,67.93 M176.4,68.57c0.42,0,0.75-0.11,1-0.34c0.25-0.22,0.38-0.58,0.38-1.07v-0.22l-1.46,0.22
	c-0.21,0.03-0.38,0.11-0.51,0.23c-0.13,0.12-0.19,0.28-0.19,0.49c0,0.18,0.07,0.35,0.21,0.49C175.98,68.5,176.17,68.57,176.4,68.57"
	/>
<path class="st0" d="M181.29,66.45v2.76h-0.93v-4.77h0.91v0.68c0.32-0.55,0.81-0.82,1.47-0.82c0.55,0,0.97,0.17,1.26,0.52
	c0.29,0.35,0.44,0.8,0.44,1.36v3.03h-0.93v-2.87c0-0.8-0.37-1.2-1.11-1.2c-0.35,0-0.62,0.12-0.82,0.37
	C181.39,65.76,181.29,66.07,181.29,66.45"/>
<path class="st0" d="M185.83,67.93c0-0.41,0.13-0.74,0.4-0.99c0.26-0.25,0.62-0.4,1.05-0.46l1.29-0.19
	c0.24-0.03,0.37-0.15,0.37-0.36c0-0.25-0.09-0.46-0.26-0.61c-0.17-0.16-0.43-0.24-0.77-0.24c-0.32,0-0.57,0.09-0.75,0.26
	c-0.18,0.18-0.29,0.41-0.33,0.7l-0.89-0.21c0.05-0.46,0.25-0.83,0.62-1.12c0.37-0.29,0.81-0.43,1.33-0.43c0.67,0,1.17,0.16,1.5,0.49
	c0.32,0.33,0.49,0.75,0.49,1.26v2.39c0,0.28,0.02,0.54,0.06,0.78h-0.91c-0.03-0.2-0.05-0.41-0.05-0.65
	c-0.13,0.21-0.33,0.4-0.58,0.56c-0.25,0.16-0.57,0.24-0.96,0.24c-0.47,0-0.85-0.14-1.15-0.42
	C185.98,68.65,185.83,68.32,185.83,67.93 M187.56,68.57c0.42,0,0.75-0.11,1-0.34c0.25-0.22,0.38-0.58,0.38-1.07v-0.22l-1.46,0.22
	c-0.21,0.03-0.38,0.11-0.51,0.23c-0.13,0.12-0.19,0.28-0.19,0.49c0,0.18,0.07,0.35,0.21,0.49C187.14,68.5,187.33,68.57,187.56,68.57
	"/>
<rect x="191.52" y="62.02" class="st0" width="0.93" height="7.18"/>
<path class="st0" d="M195.16,69.21h-0.92v-4.77h0.92V69.21z M196.32,62.37l-1.25,1.45h-0.78l0.86-1.45H196.32z"/>
<path class="st0" d="M198.19,62.93v1.51h1.03v0.84h-1.03v2.48c0,0.23,0.05,0.39,0.15,0.5c0.1,0.11,0.27,0.16,0.51,0.16
	c0.14,0,0.26-0.01,0.37-0.04v0.79c-0.16,0.06-0.37,0.09-0.64,0.09c-0.41,0-0.73-0.12-0.97-0.36c-0.24-0.24-0.36-0.57-0.36-1v-2.62
	h-0.91v-0.84h0.26c0.24,0,0.43-0.07,0.55-0.2c0.12-0.14,0.18-0.31,0.18-0.53v-0.77H198.19z"/>
<path class="st0" d="M200.65,63.1c-0.13-0.13-0.19-0.29-0.19-0.47c0-0.18,0.07-0.34,0.19-0.48s0.29-0.2,0.47-0.2
	s0.34,0.06,0.48,0.19c0.13,0.13,0.2,0.29,0.2,0.48c0,0.19-0.07,0.34-0.2,0.47c-0.13,0.13-0.29,0.19-0.48,0.19
	S200.78,63.23,200.65,63.1 M201.59,69.21h-0.92v-4.77h0.92V69.21z"/>
<path class="st0" d="M205.38,65.15c-0.4,0-0.75,0.15-1.03,0.44c-0.28,0.29-0.42,0.7-0.42,1.23c0,0.52,0.14,0.93,0.42,1.23
	c0.28,0.3,0.63,0.45,1.04,0.45c0.4,0,0.7-0.1,0.91-0.3c0.21-0.2,0.35-0.43,0.42-0.68l0.82,0.36c-0.13,0.4-0.38,0.74-0.75,1.04
	c-0.37,0.3-0.83,0.45-1.4,0.45c-0.7,0-1.27-0.24-1.73-0.72c-0.46-0.48-0.68-1.09-0.68-1.82c0-0.74,0.23-1.35,0.68-1.82
	c0.46-0.47,1.03-0.71,1.72-0.71c0.58,0,1.05,0.15,1.41,0.45c0.36,0.3,0.6,0.65,0.71,1.07l-0.84,0.36c-0.07-0.28-0.21-0.52-0.42-0.71
	C206.03,65.25,205.75,65.15,205.38,65.15"/>
<path class="st0" d="M208.48,67.93c0-0.41,0.13-0.74,0.4-0.99c0.26-0.25,0.62-0.4,1.05-0.46l1.29-0.19
	c0.24-0.03,0.37-0.15,0.37-0.36c0-0.25-0.09-0.46-0.26-0.61c-0.17-0.16-0.43-0.24-0.77-0.24c-0.32,0-0.57,0.09-0.76,0.26
	c-0.18,0.18-0.29,0.41-0.33,0.7l-0.89-0.21c0.05-0.46,0.25-0.83,0.62-1.12c0.37-0.29,0.81-0.43,1.33-0.43c0.67,0,1.17,0.16,1.5,0.49
	c0.32,0.33,0.49,0.75,0.49,1.26v2.39c0,0.28,0.02,0.54,0.06,0.78h-0.91c-0.03-0.2-0.05-0.41-0.05-0.65
	c-0.13,0.21-0.33,0.4-0.58,0.56c-0.26,0.16-0.57,0.24-0.96,0.24c-0.47,0-0.85-0.14-1.15-0.42
	C208.63,68.65,208.48,68.32,208.48,67.93 M210.21,68.57c0.42,0,0.75-0.11,1-0.34c0.25-0.22,0.38-0.58,0.38-1.07v-0.22l-1.46,0.22
	c-0.21,0.03-0.38,0.11-0.51,0.23c-0.13,0.12-0.19,0.28-0.19,0.49c0,0.18,0.07,0.35,0.21,0.49C209.79,68.5,209.98,68.57,210.21,68.57
	"/>
<path class="st0" d="M144.61,78.48V78.4c-0.13,0.24-0.32,0.45-0.57,0.61c-0.25,0.16-0.56,0.24-0.91,0.24
	c-0.68,0-1.23-0.24-1.64-0.72c-0.41-0.48-0.62-1.08-0.62-1.81c0-0.69,0.21-1.28,0.64-1.77c0.42-0.49,0.97-0.73,1.63-0.73
	c0.39,0,0.71,0.08,0.95,0.23c0.24,0.16,0.41,0.35,0.51,0.57v-3.09h0.92v6.3c0,0.32,0.02,0.62,0.05,0.88h-0.9
	C144.63,78.94,144.61,78.73,144.61,78.48 M141.82,76.73c0,0.5,0.12,0.91,0.37,1.23c0.25,0.32,0.59,0.48,1.03,0.48
	c0.42,0,0.75-0.16,1-0.49c0.25-0.32,0.38-0.74,0.38-1.24c0-0.5-0.12-0.9-0.37-1.2c-0.24-0.3-0.58-0.46-1-0.46
	c-0.42,0-0.76,0.16-1.02,0.47C141.95,75.83,141.82,76.23,141.82,76.73"/>
<path class="st0" d="M150.65,77.49l0.8,0.28c-0.14,0.44-0.4,0.81-0.77,1.09c-0.38,0.28-0.83,0.42-1.37,0.42
	c-0.67,0-1.24-0.23-1.7-0.69c-0.47-0.46-0.7-1.08-0.7-1.86c0-0.73,0.22-1.33,0.67-1.81c0.45-0.48,0.99-0.71,1.61-0.71
	c0.72,0,1.28,0.23,1.69,0.68c0.4,0.45,0.6,1.06,0.6,1.82c0,0.12-0.01,0.22-0.02,0.3h-3.59c0.01,0.42,0.15,0.77,0.42,1.04
	c0.27,0.27,0.61,0.41,1.02,0.41C150,78.45,150.44,78.13,150.65,77.49 M147.91,76.25h2.61c-0.01-0.36-0.13-0.65-0.36-0.88
	s-0.54-0.34-0.95-0.34c-0.37,0-0.67,0.12-0.91,0.36C148.05,75.63,147.93,75.92,147.91,76.25"/>
<path class="st0" d="M158.21,76.25h-1.59v2.88h-0.97v-7.03h2.56c0.64,0,1.16,0.2,1.57,0.6c0.4,0.4,0.6,0.89,0.6,1.49
	c0,0.6-0.2,1.1-0.6,1.49C159.38,76.06,158.85,76.25,158.21,76.25 M156.63,75.38h1.41c0.42,0,0.75-0.11,0.99-0.32
	c0.24-0.21,0.37-0.5,0.37-0.87c0-0.37-0.12-0.67-0.37-0.89s-0.57-0.33-0.99-0.33h-1.41V75.38z"/>
<path class="st0" d="M161.57,74.93c0.46-0.48,1.04-0.72,1.75-0.72c0.71,0,1.29,0.24,1.75,0.72c0.46,0.48,0.69,1.08,0.69,1.81
	c0,0.73-0.23,1.34-0.68,1.82c-0.46,0.48-1.04,0.72-1.76,0.72c-0.71,0-1.3-0.24-1.76-0.72c-0.46-0.48-0.68-1.09-0.68-1.82
	C160.88,76.01,161.11,75.41,161.57,74.93 M162.27,77.99c0.29,0.3,0.64,0.45,1.06,0.45c0.42,0,0.77-0.15,1.06-0.45
	c0.29-0.3,0.43-0.72,0.43-1.26c0-0.53-0.14-0.94-0.43-1.24c-0.29-0.3-0.64-0.45-1.06-0.45c-0.42,0-0.77,0.15-1.06,0.45
	c-0.29,0.3-0.43,0.72-0.43,1.24C161.83,77.27,161.98,77.69,162.27,77.99"/>
<path class="st0" d="M169.8,74.31v0.99c-0.14-0.02-0.27-0.03-0.41-0.03c-0.87,0-1.31,0.49-1.31,1.47v2.39h-0.93v-4.77h0.91v0.83
	c0.29-0.61,0.77-0.91,1.43-0.91C169.6,74.28,169.7,74.29,169.8,74.31"/>
<path class="st0" d="M172.49,72.85v1.51h1.03v0.84h-1.03v2.48c0,0.23,0.05,0.39,0.15,0.5c0.1,0.11,0.27,0.16,0.51,0.16
	c0.14,0,0.26-0.01,0.37-0.04v0.79c-0.16,0.06-0.37,0.09-0.64,0.09c-0.41,0-0.73-0.12-0.97-0.36c-0.24-0.24-0.36-0.57-0.36-1V75.2
	h-0.91v-0.84h0.26c0.24,0,0.43-0.07,0.55-0.2c0.12-0.14,0.18-0.31,0.18-0.53v-0.77H172.49z"/>
<path class="st0" d="M175.2,74.93c0.46-0.48,1.04-0.72,1.75-0.72c0.71,0,1.29,0.24,1.75,0.72c0.46,0.48,0.69,1.08,0.69,1.81
	c0,0.73-0.23,1.34-0.68,1.82c-0.46,0.48-1.04,0.72-1.76,0.72c-0.71,0-1.3-0.24-1.76-0.72c-0.46-0.48-0.68-1.09-0.68-1.82
	C174.51,76.01,174.74,75.41,175.2,74.93 M175.9,77.99c0.29,0.3,0.64,0.45,1.06,0.45c0.42,0,0.77-0.15,1.06-0.45
	c0.29-0.3,0.43-0.72,0.43-1.26c0-0.53-0.14-0.94-0.43-1.24c-0.29-0.3-0.64-0.45-1.06-0.45c-0.42,0-0.77,0.15-1.06,0.45
	s-0.43,0.72-0.43,1.24C175.46,77.27,175.61,77.69,175.9,77.99"/>
<path class="st0" d="M188.43,79.13l-0.76-1.96h-3.12l-0.75,1.96h-1.04l2.8-7.03h1.12l2.8,7.03H188.43z M186.1,73.11l-1.2,3.15h2.42
	L186.1,73.11z"/>
<rect x="190.57" y="71.94" class="st0" width="0.93" height="7.18"/>
<path class="st0" d="M196.65,77.49l0.8,0.28c-0.14,0.44-0.4,0.81-0.77,1.09c-0.38,0.28-0.83,0.42-1.37,0.42
	c-0.67,0-1.23-0.23-1.7-0.69c-0.47-0.46-0.7-1.08-0.7-1.86c0-0.73,0.23-1.33,0.68-1.81c0.45-0.48,0.98-0.71,1.61-0.71
	c0.72,0,1.28,0.23,1.69,0.68c0.4,0.45,0.61,1.06,0.61,1.82c0,0.12-0.01,0.22-0.02,0.3h-3.59c0.01,0.42,0.15,0.77,0.42,1.04
	c0.27,0.27,0.61,0.41,1.02,0.41C195.99,78.45,196.43,78.13,196.65,77.49 M193.9,76.25h2.61c-0.01-0.36-0.13-0.65-0.36-0.88
	c-0.23-0.23-0.54-0.34-0.95-0.34c-0.37,0-0.67,0.12-0.91,0.36C194.05,75.63,193.92,75.92,193.9,76.25"/>
<path class="st0" d="M198.52,79.39l0.9-0.21c0.03,0.34,0.17,0.62,0.41,0.84c0.24,0.22,0.54,0.33,0.89,0.33
	c0.97,0,1.46-0.51,1.46-1.55v-0.68c-0.12,0.23-0.3,0.42-0.56,0.57c-0.26,0.15-0.55,0.22-0.9,0.22c-0.63,0-1.16-0.22-1.57-0.65
	c-0.41-0.43-0.62-0.99-0.62-1.66c0-0.66,0.21-1.21,0.62-1.65s0.94-0.67,1.58-0.67c0.73,0,1.22,0.25,1.47,0.75v-0.66h0.92v4.41
	c0,0.32-0.04,0.61-0.12,0.89c-0.08,0.27-0.21,0.53-0.39,0.76c-0.18,0.23-0.43,0.41-0.75,0.55c-0.32,0.13-0.7,0.2-1.13,0.2
	c-0.59,0-1.09-0.17-1.5-0.5S198.58,79.9,198.52,79.39 M200.86,78.12c0.4,0,0.73-0.14,0.98-0.42c0.25-0.28,0.38-0.65,0.38-1.1
	c0-0.46-0.13-0.83-0.38-1.11c-0.25-0.28-0.58-0.42-0.98-0.42c-0.41,0-0.74,0.14-1,0.42c-0.26,0.28-0.38,0.65-0.38,1.11
	c0,0.47,0.12,0.84,0.37,1.12C200.1,77.98,200.44,78.12,200.86,78.12"/>
<path class="st0" d="M207.45,74.31v0.99c-0.14-0.02-0.27-0.03-0.41-0.03c-0.87,0-1.31,0.49-1.31,1.47v2.39h-0.93v-4.77h0.91v0.83
	c0.29-0.61,0.77-0.91,1.43-0.91C207.25,74.28,207.35,74.29,207.45,74.31"/>
<path class="st0" d="M211.94,77.49l0.8,0.28c-0.14,0.44-0.4,0.81-0.77,1.09c-0.38,0.28-0.83,0.42-1.37,0.42
	c-0.67,0-1.23-0.23-1.7-0.69c-0.47-0.46-0.7-1.08-0.7-1.86c0-0.73,0.23-1.33,0.68-1.81c0.45-0.48,0.98-0.71,1.61-0.71
	c0.72,0,1.28,0.23,1.69,0.68c0.4,0.45,0.61,1.06,0.61,1.82c0,0.12-0.01,0.22-0.02,0.3h-3.59c0.01,0.42,0.15,0.77,0.42,1.04
	c0.27,0.27,0.61,0.41,1.02,0.41C211.29,78.45,211.73,78.13,211.94,77.49 M209.2,76.25h2.61c-0.01-0.36-0.13-0.65-0.36-0.88
	c-0.23-0.23-0.54-0.34-0.95-0.34c-0.37,0-0.67,0.12-0.91,0.36C209.34,75.63,209.22,75.92,209.2,76.25"/>
<path class="st0" d="M21.42,48.12c0,2.72-2.21,4.93-4.93,4.93s-4.93-2.21-4.93-4.93c0-2.72,2.21-4.93,4.93-4.93
	S21.42,45.4,21.42,48.12"/>
<path class="st0" d="M32.42,24.3c-7.67-5.17-18.09-3.14-23.26,4.53c-3.5,5.19-3.69,11.62-1.08,16.85c-1.27-3.84-0.82-8.2,1.61-11.81
	c4.17-6.19,12.57-7.83,18.76-3.66c6.19,4.17,7.83,12.57,3.66,18.76c-2.34,3.47-6.01,5.5-9.88,5.89c-0.08,0.01-0.15,0.04-0.23,0.05
	c5.74,0.36,11.5-2.24,14.95-7.35C42.12,39.88,40.09,29.47,32.42,24.3"/>
<path class="st0" d="M44.9,5.77C32.11-2.85,14.76,0.53,6.14,13.32c-6.15,9.12-6.18,20.56-1.05,29.5c-0.02-0.07-0.03-0.14-0.05-0.2
	c-0.59-1.88-0.9-3.88-0.9-5.95c0-11.02,8.93-19.95,19.95-19.95c11.02,0,19.95,8.93,19.95,19.95c0,10.44-8.03,19.01-18.25,19.87
	c-0.1,0.01-0.2,0.03-0.3,0.04c10.22,1.4,20.82-2.92,26.97-12.05C61.07,31.74,57.69,14.39,44.9,5.77"/>
<path class="st0" d="M26.18,33.56c-5.12-3.45-12.06-2.09-15.5,3.02c-2.07,3.07-2.39,6.8-1.22,10.03c-0.02-0.23-0.04-0.46-0.04-0.7
	c0-4.61,3.74-8.34,8.34-8.34s8.34,3.74,8.34,8.34c0,3.24-1.85,6.05-4.56,7.43c-0.38,0.24-0.77,0.45-1.18,0.62
	c3.44-0.13,6.77-1.82,8.84-4.9C32.65,43.95,31.29,37,26.18,33.56"/>
</svg>
